<mxfile host="app.diagrams.net" modified="2020-10-30T06:47:17.922Z" agent="5.0 (Windows)" etag="p1nYoEUVHFJxK78kxGY1" version="13.8.7" type="github">
  <diagram id="C5RBs43oDa-KdzZeNtuy" name="Page-1">
    <mxGraphModel dx="1360" dy="843" grid="1" gridSize="10" guides="1" tooltips="1" connect="1" arrows="1" fold="1" page="1" pageScale="1" pageWidth="827" pageHeight="1169" math="0" shadow="0">
      <root>
        <mxCell id="WIyWlLk6GJQsqaUBKTNV-0" />
        <mxCell id="WIyWlLk6GJQsqaUBKTNV-1" parent="WIyWlLk6GJQsqaUBKTNV-0" />
        <mxCell id="vsRuQxq_lsdi0feKm4ai-3" value="" style="edgeStyle=orthogonalEdgeStyle;rounded=0;orthogonalLoop=1;jettySize=auto;html=1;" edge="1" parent="WIyWlLk6GJQsqaUBKTNV-1" source="vsRuQxq_lsdi0feKm4ai-0" target="vsRuQxq_lsdi0feKm4ai-1">
          <mxGeometry relative="1" as="geometry" />
        </mxCell>
        <mxCell id="vsRuQxq_lsdi0feKm4ai-0" value="Excel Component" style="rounded=0;whiteSpace=wrap;html=1;" vertex="1" parent="WIyWlLk6GJQsqaUBKTNV-1">
          <mxGeometry x="300" y="120" width="170" height="100" as="geometry" />
        </mxCell>
        <mxCell id="vsRuQxq_lsdi0feKm4ai-1" value="&lt;div&gt;DOMListener&lt;/div&gt;" style="whiteSpace=wrap;html=1;" vertex="1" parent="WIyWlLk6GJQsqaUBKTNV-1">
          <mxGeometry x="610" y="120" width="140" height="100" as="geometry" />
        </mxCell>
        <mxCell id="vsRuQxq_lsdi0feKm4ai-4" value="Header" style="whiteSpace=wrap;html=1;" vertex="1" parent="WIyWlLk6GJQsqaUBKTNV-1">
          <mxGeometry x="80" y="310" width="120" height="60" as="geometry" />
        </mxCell>
        <mxCell id="vsRuQxq_lsdi0feKm4ai-5" value="Toolbar" style="whiteSpace=wrap;html=1;" vertex="1" parent="WIyWlLk6GJQsqaUBKTNV-1">
          <mxGeometry x="250" y="310" width="120" height="60" as="geometry" />
        </mxCell>
        <mxCell id="vsRuQxq_lsdi0feKm4ai-7" value="Formula" style="whiteSpace=wrap;html=1;" vertex="1" parent="WIyWlLk6GJQsqaUBKTNV-1">
          <mxGeometry x="420" y="310" width="120" height="60" as="geometry" />
        </mxCell>
        <mxCell id="vsRuQxq_lsdi0feKm4ai-9" value="Table" style="whiteSpace=wrap;html=1;" vertex="1" parent="WIyWlLk6GJQsqaUBKTNV-1">
          <mxGeometry x="600" y="310" width="120" height="60" as="geometry" />
        </mxCell>
        <mxCell id="vsRuQxq_lsdi0feKm4ai-13" value="" style="endArrow=classic;html=1;exitX=1;exitY=0;exitDx=0;exitDy=0;entryX=0;entryY=1;entryDx=0;entryDy=0;" edge="1" parent="WIyWlLk6GJQsqaUBKTNV-1" source="vsRuQxq_lsdi0feKm4ai-4" target="vsRuQxq_lsdi0feKm4ai-0">
          <mxGeometry width="50" height="50" relative="1" as="geometry">
            <mxPoint x="200" y="290" as="sourcePoint" />
            <mxPoint x="250" y="240" as="targetPoint" />
          </mxGeometry>
        </mxCell>
        <mxCell id="vsRuQxq_lsdi0feKm4ai-14" value="" style="endArrow=classic;html=1;exitX=0.5;exitY=0;exitDx=0;exitDy=0;entryX=0.5;entryY=1;entryDx=0;entryDy=0;" edge="1" parent="WIyWlLk6GJQsqaUBKTNV-1" source="vsRuQxq_lsdi0feKm4ai-5" target="vsRuQxq_lsdi0feKm4ai-0">
          <mxGeometry width="50" height="50" relative="1" as="geometry">
            <mxPoint x="300" y="290.0000000000001" as="sourcePoint" />
            <mxPoint x="350" y="240" as="targetPoint" />
          </mxGeometry>
        </mxCell>
        <mxCell id="vsRuQxq_lsdi0feKm4ai-16" value="" style="endArrow=classic;html=1;" edge="1" parent="WIyWlLk6GJQsqaUBKTNV-1">
          <mxGeometry width="50" height="50" relative="1" as="geometry">
            <mxPoint x="480" y="310.0000000000001" as="sourcePoint" />
            <mxPoint x="395" y="220" as="targetPoint" />
          </mxGeometry>
        </mxCell>
        <mxCell id="vsRuQxq_lsdi0feKm4ai-17" value="" style="endArrow=classic;html=1;entryX=1;entryY=1;entryDx=0;entryDy=0;" edge="1" parent="WIyWlLk6GJQsqaUBKTNV-1" target="vsRuQxq_lsdi0feKm4ai-0">
          <mxGeometry width="50" height="50" relative="1" as="geometry">
            <mxPoint x="600" y="310.0000000000001" as="sourcePoint" />
            <mxPoint x="507.5" y="219.9999999999999" as="targetPoint" />
          </mxGeometry>
        </mxCell>
        <mxCell id="vsRuQxq_lsdi0feKm4ai-18" value="Excel" style="whiteSpace=wrap;html=1;" vertex="1" parent="WIyWlLk6GJQsqaUBKTNV-1">
          <mxGeometry x="280" y="510" width="225" height="120" as="geometry" />
        </mxCell>
        <mxCell id="vsRuQxq_lsdi0feKm4ai-20" value="" style="endArrow=classic;html=1;exitX=0;exitY=0;exitDx=0;exitDy=0;entryX=0.5;entryY=1;entryDx=0;entryDy=0;" edge="1" parent="WIyWlLk6GJQsqaUBKTNV-1" source="vsRuQxq_lsdi0feKm4ai-18" target="vsRuQxq_lsdi0feKm4ai-4">
          <mxGeometry width="50" height="50" relative="1" as="geometry">
            <mxPoint x="170" y="510" as="sourcePoint" />
            <mxPoint x="270" y="420" as="targetPoint" />
          </mxGeometry>
        </mxCell>
        <mxCell id="vsRuQxq_lsdi0feKm4ai-21" value="" style="endArrow=classic;html=1;exitX=0.356;exitY=-0.017;exitDx=0;exitDy=0;entryX=0.5;entryY=1;entryDx=0;entryDy=0;exitPerimeter=0;" edge="1" parent="WIyWlLk6GJQsqaUBKTNV-1" source="vsRuQxq_lsdi0feKm4ai-18" target="vsRuQxq_lsdi0feKm4ai-5">
          <mxGeometry width="50" height="50" relative="1" as="geometry">
            <mxPoint x="295" y="490" as="sourcePoint" />
            <mxPoint x="370" y="400" as="targetPoint" />
          </mxGeometry>
        </mxCell>
        <mxCell id="vsRuQxq_lsdi0feKm4ai-22" value="" style="endArrow=classic;html=1;exitX=0.604;exitY=-0.017;exitDx=0;exitDy=0;exitPerimeter=0;entryX=0.5;entryY=1;entryDx=0;entryDy=0;" edge="1" parent="WIyWlLk6GJQsqaUBKTNV-1" source="vsRuQxq_lsdi0feKm4ai-18" target="vsRuQxq_lsdi0feKm4ai-7">
          <mxGeometry width="50" height="50" relative="1" as="geometry">
            <mxPoint x="465" y="490" as="sourcePoint" />
            <mxPoint x="380" y="400" as="targetPoint" />
          </mxGeometry>
        </mxCell>
        <mxCell id="vsRuQxq_lsdi0feKm4ai-23" value="" style="endArrow=classic;html=1;entryX=0.5;entryY=1;entryDx=0;entryDy=0;exitX=1;exitY=0;exitDx=0;exitDy=0;" edge="1" parent="WIyWlLk6GJQsqaUBKTNV-1" source="vsRuQxq_lsdi0feKm4ai-18" target="vsRuQxq_lsdi0feKm4ai-9">
          <mxGeometry width="50" height="50" relative="1" as="geometry">
            <mxPoint x="650" y="500" as="sourcePoint" />
            <mxPoint x="520" y="410" as="targetPoint" />
          </mxGeometry>
        </mxCell>
        <mxCell id="vsRuQxq_lsdi0feKm4ai-24" value="Рендер элементов в HTML" style="text;html=1;align=center;verticalAlign=middle;resizable=0;points=[];autosize=1;" vertex="1" parent="WIyWlLk6GJQsqaUBKTNV-1">
          <mxGeometry x="307.5" y="640" width="170" height="20" as="geometry" />
        </mxCell>
        <mxCell id="vsRuQxq_lsdi0feKm4ai-25" value="Добавление / удаление слушателей" style="text;html=1;align=center;verticalAlign=middle;resizable=0;points=[];autosize=1;" vertex="1" parent="WIyWlLk6GJQsqaUBKTNV-1">
          <mxGeometry x="570" y="230" width="220" height="20" as="geometry" />
        </mxCell>
      </root>
    </mxGraphModel>
  </diagram>
</mxfile>
